<svg width="19" height="18" viewBox="0 0 19 18" fill="none" xmlns="http://www.w3.org/2000/svg">
<g clip-path="url(#clip0_243_1681)">
<path d="M4.5457 17.0022L5.97742 15.5705C7.11034 16.3141 8.4623 16.7504 9.91582 16.7504C11.3687 16.7504 12.72 16.3144 13.8526 15.5714L15.2834 17.0022C15.5847 17.3036 16.073 17.3036 16.3743 17.0022C16.6756 16.7012 16.6756 16.2125 16.3743 15.9114L15.0511 14.5882C16.3263 13.2886 17.1158 11.5108 17.1158 9.55034C17.1158 5.57995 13.8861 2.35034 9.91582 2.35034C5.94553 2.35034 2.71582 5.57995 2.71582 9.55034C2.71582 11.51 3.50494 13.2873 4.77939 14.5868L3.45485 15.9114C3.15353 16.2125 3.15353 16.7011 3.45485 17.0022C3.75617 17.3036 4.24438 17.3036 4.5457 17.0022ZM9.14439 6.69091C9.14439 6.264 9.48896 5.91948 9.91582 5.91948C10.3427 5.91948 10.6872 6.264 10.6872 6.69091V8.69658L12.765 10.7743C13.0632 11.0778 13.0632 11.5663 12.765 11.8646C12.4787 12.1605 11.9724 12.1726 11.6747 11.8646L9.37063 9.56063C9.22668 9.41663 9.14439 9.22115 9.14439 9.01548V6.69091Z" fill="white"/>
<path d="M17.2546 6.4389C17.8153 5.82695 18.1443 5.01947 18.1443 4.16066C18.1443 2.2989 16.6272 0.776611 14.7603 0.776611C13.7574 0.776611 12.842 1.20851 12.2197 1.92347C14.4929 2.60747 16.3392 4.2789 17.2546 6.4389Z" fill="white"/>
<path d="M7.67379 1.90291C7.03607 1.19839 6.12064 0.771484 5.12288 0.771484C3.23036 0.771484 1.6875 2.31434 1.6875 4.20686C1.6875 5.06068 2.0115 5.868 2.55659 6.48525C3.47721 4.28411 5.35436 2.58182 7.67379 1.90291Z" fill="white"/>
</g>
<defs>
<clipPath id="clip0_243_1681">
<rect width="18" height="18" fill="white" transform="translate(0.916016)"/>
</clipPath>
</defs>
</svg>
